<?xml version="1.0" encoding="UTF-8"?><svg id="Layer_2" xmlns="http://www.w3.org/2000/svg" viewBox="0 0 715.68 731.04"><defs><style>.cls-1{fill:#fefbf6;}.cls-2{fill:none;stroke:#000;stroke-miterlimit:10;stroke-width:17px;}.cls-3{fill:#ff9028;}.cls-4{fill:#ff3e28;}.cls-5{fill:#ffd928;}</style></defs><g id="Layer_1-2"><g><path d="m443.99,350.47c-5.39,14.15-9.27,28.79-13.85,43.2-4.79,15.09-9.49,30.21-13.96,45.4-1.28,4.37-3.14,5.16-7.22,3.44-9.37-3.94-18.75-7.93-28.88-9.68-13.46-2.33-26.79-2.67-40.48-.8-13.82,1.89-26.82,6-39.76,10.68-2.74.99-3.72.7-4.56-2.17-6.53-22.33-13.15-44.64-19.9-66.91-2.34-7.71-3.96-15.65-7.11-23.11.04-.66.29-1.38.1-1.97-9.64-30.01-17.89-60.43-26.88-90.63-7.76-26.04-15.41-52.11-23.11-78.16-4.64-16.12-9.22-32.26-13.93-48.37-2.02-6.91-4.09-13.82-6.49-20.6-1.32-3.71,1.09-5.38,3.27-6.83,29.16-19.44,58.42-38.71,87.59-58.13,13.66-9.09,27.16-18.42,40.72-27.66.38-.26.59-.76.88-1.15,2.85-.46,4.8-2.59,6.93-4.14C343.29,8.56,350.22,5.59,355.25,0c1.66,0,3.33,0,4.99,0,.95.79,1.84,1.66,2.86,2.35,7.29,4.94,14.25,10.37,21.97,14.68,10.74,8.15,22.17,15.29,33.22,23,29.69,20.72,59.51,41.25,89.63,61.35.54.36.91.97,1.42,1.39,9.19,7.42,9.09,7.38,5.43,18.59-5.95,18.25-11.77,36.54-17.58,54.83-.34,1.06-.17,2.28-.24,3.42-.7.28-.81.87-1.01,1.53-5.44,17.84-10.89,35.68-16.41,53.5-9.14,29.52-18.36,59.01-27.48,88.54-2.8,9.07-5.38,18.2-8.06,27.3Zm32.83-170.71c.17-.28.39-.55.49-.85,6.22-19.49,12.42-38.98,18.64-58.47.9-2.81-.07-4.81-2.45-6.44-28.68-19.66-57.3-39.39-86.01-59.01-14.86-10.16-30.08-19.82-44.66-30.36-4.18-3.02-6.4-2.64-10.08.07-5.17,3.82-10.59,7.31-15.91,10.94-23.38,15.94-47.01,31.51-70.51,47.27-14.83,9.95-29.53,20.1-44.46,29.91-2.71,1.78-2.84,4.01-2.21,6.18,5.89,20.29,11.98,40.51,18.01,60.76,4.93,16.78,9.91,33.55,14.78,50.35,7.71,26.56,15.32,53.15,23.04,79.71,3.95,13.59,8.04,27.13,12.07,40.7,5.97,20.45,11.88,40.92,17.95,61.34,2.56,8.59,2.68,8.37,11.77,6.17,16.54-4.01,33.16-6.45,50.35-4.75,10.73,1.06,21.33,2.23,31.53,5.77,3.1,1.07,4.2-.22,4.95-2.74,1.32-4.49,2.6-8.99,3.96-13.47,5.28-17.44,10.58-34.87,15.87-52.31,4.28-12.11,7.88-24.43,11.6-36.73,8.94-29.54,18.31-58.95,27.47-88.42,4.71-15.17,9.89-30.2,13.83-45.61Z"/><path d="m0,256.66c18.01-14.53,35.73-29.44,54.15-43.43,9.59-7.28,19.16-15.05,30.46-19.59,9.32-3.75,18.7.66,23.83,9.23,11.79,19.69,23.84,39.22,35.78,58.81,11.94,19.6,23.84,39.22,35.83,58.79,6.16,10.06,12.46,20.04,18.69,30.05,6.93,11.49,13.87,22.98,20.79,34.47,11.69,19.43,24.21,38.35,35.22,58.19,5.96,10.74,2.6,22.1-9.2,27.7-14.67,6.96-29.12,14.34-41.97,24.46-8.89,7-17.99,13.77-25.66,22.18-4.2,4.61-8.99,8.5-14.33,11.7-4.62,1.46-9.24,1.46-13.86,0-25-15.29-50.01-30.56-74.99-45.88-17.27-10.6-34.63-21.08-51.69-32.01C14.88,446.08,5.09,442.72,0,433.43,0,374.51,0,315.59,0,256.66Zm17.13,93.86c-1.05,4.66.92,9.11.89,13.74-.14,19.29-.03,38.58-.09,57.87,0,2.79.45,4.74,3.24,6.44,26.54,16.23,52.93,32.69,79.38,49.05,17.63,10.91,35.3,21.78,52.94,32.67,2.09,1.29,3.75,1.29,5.56-.77,2.78-3.16,5.73-6.22,8.93-8.94,7.21-6.14,14.47-12.23,21.98-18.01,14.31-11.01,29.48-20.64,46.28-27.47,3.01-1.22,3.09-2.46,1.34-5.26-10.04-16.08-19.76-32.36-29.66-48.53-10.38-16.97-20.82-33.9-31.24-50.84-3.05-5.13-6.05-10.28-9.16-15.37-12.61-20.69-25.24-41.36-37.88-62.03-11.96-19.56-24.05-39.04-35.79-58.72-2.19-3.66-3.42-3.8-6.88-1.47-22.1,14.89-43.79,30.42-66.72,44.06-2.34,1.39-3.35,3.17-3.42,6.24-.5,24.55,1.14,49.07,1.18,73.61,0,4.62-1.92,9.07-.89,13.72Z"/><path d="m0,719.05v-178.76c2.04-4.83,5.7-8.18,10.04-10.88,5.95-1.96,11.89-1.33,17.83,0,.21.24.37.61.63.7,26.88,9.07,53.79,18.08,80.66,27.19,4.01,1.36,7.99,2.94,10.55,6.73,4.69,6.95,4.62,14.32,1.74,21.79-9.77,25.28-20.15,50.34-25.13,77.19-2.86,15.42-6.74,30.66-6.6,46.52.03,3.17-1.13,6.35-1.74,9.53.04,4.13-2.46,7.8-2.16,11.98h-47.9c-.7-1.82-2.27-.93-3.4-.95-5.45-.1-10.91-.11-16.36-.03-8.36.11-13.37-5.24-18.15-11Zm55.93-5.99c2.99,0,5.98,0,8.98,0,6.61,0,6.98,0,6.87-6.91-.33-20.52,5.39-40.07,9.6-59.81,4.82-22.59,13.9-43.88,22.21-65.35,1.62-4.19,1.36-6.04-3.11-7.53-25.69-8.53-51.31-17.27-76.96-25.94q-5.54-1.87-5.55,3.95c0,46.25,0,92.49,0,138.74,0,5.45-1.82,10.8-.96,16.26.39,2.48-.23,5.93,4.21,5.6,11.6-.84,23.12,1.33,34.7.98Z"/><path d="m687.6,529.41c5.94-1.57,11.89-1.57,17.83,0,8.45,5.58,10.24,13.66,10.18,23.35-.3,50.48-.14,100.96-.15,151.44,0,4.92.38,9.87-.99,14.7-3.79,6.04-8.47,10.9-16.16,11.11-6.78.18-13.57-.03-20.35.1-1.45.03-3.31-1.05-4.4.94h-33.93c-5.61-2.64-10.97-5.56-13.14-11.98-1.11-1.98-.91-4.15-.82-6.27.59-14.22-1.22-28.29-4.34-42.01-6.69-29.31-17.86-57.23-27.99-85.46-4.5-12.52-1.28-22.86,11.02-27.82,6.9-2.79,14.06-4.95,21.16-7.23,20.78-6.69,41.59-13.29,62.08-20.85Zm9.92,99.86c0-25.95,0-51.89,0-77.84,0-5.77-.02-5.79-5.15-4.08-26,8.66-51.97,17.41-78.02,25.91-4.32,1.41-5.1,3.36-3.54,7.39,7.95,20.57,15.6,41.25,21.95,62.4,6.42,21.38,10.67,43.07,10.78,65.44.02,3.7.9,4.59,4.64,4.71,14.92.46,29.77-1.8,44.67-1.03,4.21.22,4.77-1.4,4.75-5.05-.14-25.95-.07-51.89-.07-77.84Z"/><path d="m585.92,719.06c-4.98,8.91-12.81,11.12-22.58,11.11-138.23-.18-276.46-.14-414.69-.08-8.65,0-14.94-3.51-19.09-11.02-.99-2.84-.78-5.8-.84-8.74-.25-11.72,1.33-23.25,2.9-34.83,2.77-20.48,8.67-40.04,17.29-58.68,11.51-24.87,27.24-46.88,46.75-66.19,7.6-7.52,16.11-13.96,23.93-21.21,5.51-3.67,10.89-7.55,16.55-10.98,21.03-12.74,43.36-22.34,67.33-28.15,15.64-3.79,31.43-5.42,47.49-6.03,32.18-1.22,63.01,4.77,92.77,16.49,17.57,6.92,33.54,16.89,48.95,27.76.63.45,1.46.61,2.2.91,5.26,4.37,10.76,8.49,15.72,13.17,14.27,13.47,28.15,27.38,38.84,43.97,14.2,22.01,24.13,45.93,30.32,71.4,2.82,11.57,4.66,23.35,5.76,35.15.8,8.56,2.77,17.29.39,25.97Zm-124.85-189.84c-2.01-1.3-3.94-2.75-6.04-3.89-12.99-7.07-26.74-12.32-40.9-16.46-12.96-3.79-26.24-6.21-39.67-7.46-10.8-1-21.69-1.29-32.47.03-8.71,1.06-17.47,1.75-26.12,3.58-14.61,3.1-28.84,7.37-42.43,13.46-6.88,3.08-14.09,5.79-20.03,10.74-.62.18-1.3.24-1.85.54-13.67,7.51-25.8,17.19-37.39,27.5-12.09,10.77-22.92,22.85-32.09,36.18-23.54,34.23-35.35,72.32-36.5,113.84-.14,4.92,1.24,5.89,5.97,5.89,137.19-.14,274.37-.11,411.56-.11,1,0,2-.06,2.99,0,2.86.2,3.57-1.25,3.78-3.91.29-3.71-1.1-7.17-1.07-10.79.08-8.75-1.71-17.31-3.43-25.75-3.2-15.74-7.78-31.09-14.19-45.96-9.1-21.11-21.64-39.78-37.05-56.65-9.36-10.25-20.16-18.92-31.24-27.16-6.88-5.12-13.87-10.19-21.83-13.64Z"/><path d="m514.99,350.63c19.97-32.81,39.89-65.65,59.95-98.41,10.97-17.92,22.09-35.75,33.34-53.5,5.47-8.63,18.02-10.82,26.72-5.14,20.44,13.36,40.89,26.71,60.81,40.85,4.89,3.47,10.3,6.14,14.61,10.52,3.59,3.65,5.1,7.73,5.1,12.73,0,30.94.08,61.89.14,92.83-.05,23.63-.51,47.27.03,70.88.22,9.7-3.8,15.99-11.43,20.66-32.89,20.15-65.86,40.18-98.76,60.33-11.89,7.29-23.64,14.8-35.48,22.18-8.66,5.39-18.51,5.13-26.21-2.73-19.93-20.32-42.31-37.39-67.9-50.05-3.47-1.72-7-3.34-10.45-5.06-8.6-4.3-9.48-19.12-5.59-25.51,17.44-28.68,35.1-57.24,52.65-85.85.93-1.52,1.66-3.15,2.49-4.73Zm21.8-.16c-.65,1.08-1.31,2.16-1.96,3.23-19.15,31.59-38.22,63.23-57.57,94.7-1.93,3.14-.89,3.99,1.53,4.91,12.04,4.6,23.05,11.16,33.71,18.25,15.74,10.46,30.15,22.58,43.25,36.23,1.61,1.68,2.75,2.57,5.21.98,9.38-6.06,18.98-11.79,28.46-17.71,33.37-20.87,66.67-41.86,100.55-61.91,3.26-1.93,7.6-3.58,7.58-8.81-.11-23.28-.13-46.55-.19-69.83.05-30.29.1-60.58.18-90.86,0-1.56-.28-2.46-1.84-3.46-9.12-5.84-18.09-11.92-27.08-17.98-13.42-9.04-26.78-18.16-40.24-27.15-2.53-1.69-5.1-3.34-7.09,1.29-1.64,3.81-4.44,7.11-6.63,10.69-13.53,22.23-26.99,44.51-40.55,66.72-12.38,20.27-24.87,40.47-37.31,60.71Z"/><path class="cls-5" d="m287.55,350.52c-4.03-13.56-8.12-27.11-12.07-40.7-7.72-26.56-15.33-53.15-23.04-79.71-4.88-16.8-9.85-33.57-14.78-50.35,79.72,0,159.44,0,239.16,0-3.94,15.41-9.11,30.44-13.83,45.61-9.15,29.48-18.53,58.88-27.47,88.42-3.72,12.29-7.31,24.62-11.6,36.73-45.46,0-90.92,0-136.38,0Z"/><path class="cls-1" d="m476.82,179.76c-79.72,0-159.44,0-239.16,0-6.03-20.25-12.12-40.47-18.01-60.76-.63-2.17-.5-4.4,2.21-6.18,14.93-9.81,29.63-19.96,44.46-29.91,23.5-15.76,47.13-31.33,70.51-47.27,5.32-3.62,10.74-7.12,15.91-10.94,3.68-2.72,5.9-3.09,10.08-.07,14.58,10.54,29.8,20.2,44.66,30.36,28.71,19.62,57.33,39.35,86.01,59.01,2.38,1.63,3.34,3.63,2.45,6.44-6.21,19.49-12.42,38.98-18.64,58.47-.1.3-.32.57-.49.85Z"/><path class="cls-3" d="m287.55,350.52c45.46,0,90.92,0,136.38,0-5.29,17.44-10.59,34.87-15.87,52.31-1.36,4.48-2.63,8.98-3.96,13.47-.75,2.53-1.85,3.82-4.95,2.74-10.2-3.53-20.79-4.71-31.53-5.77-17.2-1.69-33.82.75-50.35,4.75-9.09,2.2-9.21,2.42-11.77-6.17-6.07-20.42-11.98-40.89-17.95-61.34Z"/><path class="cls-3" d="m176.69,350.47c10.42,16.95,20.86,33.87,31.24,50.84,9.89,16.17,19.62,32.45,29.66,48.53,1.75,2.8,1.67,4.04-1.34,5.26-16.8,6.83-31.98,16.45-46.28,27.47-7.5,5.77-14.77,11.87-21.98,18.01-3.2,2.72-6.15,5.78-8.93,8.94-1.82,2.07-3.47,2.07-5.56.77-17.64-10.9-35.31-21.76-52.94-32.67-26.45-16.37-52.85-32.82-79.38-49.05-2.79-1.71-3.25-3.65-3.24-6.44.06-19.29-.05-38.58.09-57.87.03-4.62-1.94-9.08-.89-13.74,53.19-.02,106.38-.03,159.56-.05Z"/><path class="cls-5" d="m176.69,350.47c-53.19.02-106.38.03-159.56.05-1.03-4.65.9-9.11.89-13.72-.04-24.54-1.68-49.06-1.18-73.61.06-3.07,1.08-4.85,3.42-6.24,22.93-13.64,44.62-29.17,66.72-44.06,3.46-2.33,4.69-2.19,6.88,1.47,11.75,19.68,23.84,39.16,35.79,58.72,12.64,20.67,25.27,41.34,37.88,62.03,3.1,5.09,6.11,10.25,9.16,15.37Z"/><path class="cls-4" d="m55.93,713.05c-11.59.36-23.11-1.82-34.7-.97-4.45.32-3.82-3.12-4.21-5.6-.86-5.46.96-10.81.96-16.26-.01-46.25,0-92.49,0-138.74q0-5.82,5.55-3.95c25.65,8.67,51.26,17.41,76.96,25.94,4.47,1.48,4.73,3.34,3.11,7.53-8.31,21.47-17.38,42.76-22.21,65.35-4.21,19.73-9.93,39.28-9.6,59.81.11,6.9-.26,6.91-6.87,6.91-2.99,0-5.98,0-8.98,0Z"/><path class="cls-4" d="m697.52,629.27c0,25.95-.06,51.89.07,77.84.02,3.64-.54,5.26-4.75,5.05-14.9-.77-29.75,1.49-44.67,1.03-3.74-.12-4.62-1.01-4.64-4.71-.11-22.37-4.37-44.06-10.78-65.44-6.35-21.15-14-41.82-21.95-62.4-1.56-4.03-.77-5.98,3.54-7.39,26.05-8.5,52.02-17.25,78.02-25.91,5.13-1.71,5.15-1.69,5.15,4.08,0,25.95,0,51.89,0,77.84Z"/><path class="cls-4" d="m461.07,529.22c7.96,3.45,14.95,8.53,21.83,13.64,11.09,8.24,21.88,16.91,31.24,27.16,15.4,16.87,27.95,35.54,37.05,56.65,6.41,14.87,10.99,30.22,14.19,45.96,1.72,8.44,3.51,17,3.43,25.75-.03,3.61,1.35,7.08,1.07,10.79-.21,2.66-.92,4.12-3.78,3.91-.99-.07-1.99,0-2.99,0-137.19,0-274.37-.03-411.56.11-4.73,0-6.11-.97-5.97-5.89,1.15-41.52,12.96-79.62,36.5-113.84,9.17-13.33,20-25.41,32.09-36.18,11.58-10.31,23.71-19.99,37.39-27.5.55-.3,1.23-.37,1.85-.54,69.22,0,138.44,0,207.67,0Z"/><path class="cls-4" d="m461.07,529.22c-69.22,0-138.44,0-207.67,0,5.94-4.95,13.15-7.66,20.03-10.74,13.59-6.09,27.82-10.36,42.43-13.46,8.64-1.83,17.4-2.52,26.12-3.58,10.78-1.32,21.67-1.03,32.47-.03,13.43,1.25,26.71,3.67,39.67,7.46,14.16,4.14,27.91,9.4,40.9,16.46,2.1,1.14,4.03,2.58,6.04,3.89Z"/><path class="cls-3" d="m697.35,350.52c.05,23.28.08,46.55.19,69.83.02,5.22-4.32,6.88-7.58,8.81-33.88,20.05-67.18,41.04-100.55,61.91-9.47,5.93-19.07,11.65-28.46,17.71-2.46,1.59-3.6.7-5.21-.98-13.09-13.65-27.51-25.77-43.25-36.23-10.66-7.09-21.67-13.64-33.71-18.25-2.43-.93-3.46-1.78-1.53-4.91,19.35-31.47,38.42-63.11,57.57-94.7.65-1.08,1.31-2.16,1.96-3.23,53.52.02,107.04.03,160.56.05Z"/><path class="cls-5" d="m697.35,350.52c-53.52-.02-107.04-.03-160.56-.05,12.44-20.23,24.93-40.44,37.31-60.71,13.57-22.21,27.02-44.48,40.55-66.72,2.18-3.59,4.99-6.88,6.63-10.69,1.99-4.63,4.56-2.98,7.09-1.29,13.45,8.99,26.82,18.11,40.24,27.15,8.99,6.05,17.95,12.14,27.08,17.98,1.56,1,1.85,1.9,1.84,3.46-.08,30.29-.13,60.58-.18,90.86Z"/></g><line class="cls-2" x1="12.94" y1="350.39" x2="186.94" y2="350.89"/><line class="cls-2" x1="276.94" y1="350.39" x2="440.94" y2="350.89"/><line class="cls-2" x1="229.94" y1="179.39" x2="486.94" y2="179.89"/><line class="cls-2" x1="526.94" y1="350.39" x2="697.94" y2="350.89"/></g></svg>