<?xml version="1.0" encoding="UTF-8"?><svg id="Layer_2" xmlns="http://www.w3.org/2000/svg" viewBox="0 0 52.87 54"><defs><style>.cls-1{fill:none;stroke:#000;stroke-miterlimit:10;stroke-width:1.26px;}.cls-2{fill:#fefbf6;}.cls-3{fill:#ff9028;}.cls-4{fill:#ff3e28;}.cls-5{fill:#ffd928;}</style></defs><g id="Layer_1-2"><g><path d="m32.8,25.89c-.4,1.05-.69,2.13-1.02,3.19-.35,1.11-.7,2.23-1.03,3.35-.09.32-.23.38-.53.25-.69-.29-1.38-.59-2.13-.72-.99-.17-1.98-.2-2.99-.06-1.02.14-1.98.44-2.94.79-.2.07-.27.05-.34-.16-.48-1.65-.97-3.3-1.47-4.94-.17-.57-.29-1.16-.53-1.71,0-.05.02-.1,0-.15-.71-2.22-1.32-4.46-1.99-6.69-.57-1.92-1.14-3.85-1.71-5.77-.34-1.19-.68-2.38-1.03-3.57-.15-.51-.3-1.02-.48-1.52-.1-.27.08-.4.24-.5,2.15-1.44,4.32-2.86,6.47-4.29,1.01-.67,2.01-1.36,3.01-2.04.03-.02.04-.06.07-.08.21-.03.35-.19.51-.31C25.36.63,25.87.41,26.24,0,26.36,0,26.49,0,26.61,0c.07.06.14.12.21.17.54.36,1.05.77,1.62,1.08.79.6,1.64,1.13,2.45,1.7,2.19,1.53,4.4,3.05,6.62,4.53.04.03.07.07.11.1.68.55.67.55.4,1.37-.44,1.35-.87,2.7-1.3,4.05-.02.08-.01.17-.02.25-.05.02-.06.06-.07.11-.4,1.32-.8,2.64-1.21,3.95-.68,2.18-1.36,4.36-2.03,6.54-.21.67-.4,1.34-.6,2.02Zm2.43-12.61s.03-.04.04-.06c.46-1.44.92-2.88,1.38-4.32.07-.21,0-.36-.18-.48-2.12-1.45-4.23-2.91-6.35-4.36-1.1-.75-2.22-1.46-3.3-2.24-.31-.22-.47-.2-.74,0-.38.28-.78.54-1.18.81-1.73,1.18-3.47,2.33-5.21,3.49-1.1.73-2.18,1.48-3.28,2.21-.2.13-.21.3-.16.46.44,1.5.88,2.99,1.33,4.49.36,1.24.73,2.48,1.09,3.72.57,1.96,1.13,3.93,1.7,5.89.29,1,.59,2,.89,3.01.44,1.51.88,3.02,1.33,4.53.19.63.2.62.87.46,1.22-.3,2.45-.48,3.72-.35.79.08,1.58.16,2.33.43.23.08.31-.02.37-.2.1-.33.19-.66.29-.99.39-1.29.78-2.58,1.17-3.86.32-.89.58-1.8.86-2.71.66-2.18,1.35-4.35,2.03-6.53.35-1.12.73-2.23,1.02-3.37Z"/><path d="m0,18.96c1.33-1.07,2.64-2.17,4-3.21.71-.54,1.42-1.11,2.25-1.45.69-.28,1.38.05,1.76.68.87,1.45,1.76,2.9,2.64,4.34.88,1.45,1.76,2.9,2.65,4.34.46.74.92,1.48,1.38,2.22.51.85,1.02,1.7,1.54,2.55.86,1.43,1.79,2.83,2.6,4.3.44.79.19,1.63-.68,2.05-1.08.51-2.15,1.06-3.1,1.81-.66.52-1.33,1.02-1.9,1.64-.31.34-.66.63-1.06.86-.34.11-.68.11-1.02,0-1.85-1.13-3.69-2.26-5.54-3.39-1.28-.78-2.56-1.56-3.82-2.36C1.1,32.95.38,32.7,0,32.02,0,27.66,0,23.31,0,18.96Zm1.27,6.93c-.08.34.07.67.07,1.01-.01,1.42,0,2.85,0,4.27,0,.21.03.35.24.48,1.96,1.2,3.91,2.41,5.86,3.62,1.3.81,2.61,1.61,3.91,2.41.15.1.28.1.41-.06.21-.23.42-.46.66-.66.53-.45,1.07-.9,1.62-1.33,1.06-.81,2.18-1.52,3.42-2.03.22-.09.23-.18.1-.39-.74-1.19-1.46-2.39-2.19-3.58-.77-1.25-1.54-2.5-2.31-3.76-.23-.38-.45-.76-.68-1.14-.93-1.53-1.86-3.05-2.8-4.58-.88-1.44-1.78-2.88-2.64-4.34-.16-.27-.25-.28-.51-.11-1.63,1.1-3.23,2.25-4.93,3.25-.17.1-.25.23-.25.46-.04,1.81.08,3.62.09,5.44,0,.34-.14.67-.07,1.01Z"/><path d="m0,53.11v-13.2c.15-.36.42-.6.74-.8.44-.15.88-.1,1.32,0,.02.02.03.04.05.05,1.99.67,3.97,1.34,5.96,2.01.3.1.59.22.78.5.35.51.34,1.06.13,1.61-.72,1.87-1.49,3.72-1.86,5.7-.21,1.14-.5,2.26-.49,3.44,0,.23-.08.47-.13.7,0,.31-.18.58-.16.89h-3.54c-.05-.13-.17-.07-.25-.07-.4,0-.81,0-1.21,0-.62,0-.99-.39-1.34-.81Zm4.13-.44c.22,0,.44,0,.66,0,.49,0,.52,0,.51-.51-.02-1.52.4-2.96.71-4.42.36-1.67,1.03-3.24,1.64-4.83.12-.31.1-.45-.23-.56-1.9-.63-3.79-1.28-5.68-1.92q-.41-.14-.41.29c0,3.42,0,6.83,0,10.25,0,.4-.13.8-.07,1.2.03.18-.02.44.31.41.86-.06,1.71.1,2.56.07Z"/><path d="m50.79,39.11c.44-.12.88-.12,1.32,0,.62.41.76,1.01.75,1.72-.02,3.73-.01,7.46-.01,11.19,0,.36.03.73-.07,1.09-.28.45-.63.81-1.19.82-.5.01-1,0-1.5,0-.11,0-.24-.08-.33.07h-2.51c-.41-.19-.81-.41-.97-.89-.08-.15-.07-.31-.06-.46.04-1.05-.09-2.09-.32-3.1-.49-2.17-1.32-4.23-2.07-6.31-.33-.93-.09-1.69.81-2.06.51-.21,1.04-.37,1.56-.53,1.54-.49,3.07-.98,4.59-1.54Zm.73,7.38c0-1.92,0-3.83,0-5.75,0-.43,0-.43-.38-.3-1.92.64-3.84,1.29-5.76,1.91-.32.1-.38.25-.26.55.59,1.52,1.15,3.05,1.62,4.61.47,1.58.79,3.18.8,4.83,0,.27.07.34.34.35,1.1.03,2.2-.13,3.3-.08.31.02.35-.1.35-.37-.01-1.92,0-3.83,0-5.75Z"/><path d="m43.28,53.11c-.37.66-.95.82-1.67.82-10.21-.01-20.42-.01-30.63,0-.64,0-1.1-.26-1.41-.81-.07-.21-.06-.43-.06-.65-.02-.87.1-1.72.21-2.57.2-1.51.64-2.96,1.28-4.33.85-1.84,2.01-3.46,3.45-4.89.56-.56,1.19-1.03,1.77-1.57.41-.27.8-.56,1.22-.81,1.55-.94,3.2-1.65,4.97-2.08,1.16-.28,2.32-.4,3.51-.45,2.38-.09,4.65.35,6.85,1.22,1.3.51,2.48,1.25,3.62,2.05.05.03.11.05.16.07.39.32.79.63,1.16.97,1.05,1,2.08,2.02,2.87,3.25,1.05,1.63,1.78,3.39,2.24,5.27.21.85.34,1.72.43,2.6.06.63.2,1.28.03,1.92Zm-9.22-14.02c-.15-.1-.29-.2-.45-.29-.96-.52-1.98-.91-3.02-1.22-.96-.28-1.94-.46-2.93-.55-.8-.07-1.6-.1-2.4,0-.64.08-1.29.13-1.93.26-1.08.23-2.13.54-3.13.99-.51.23-1.04.43-1.48.79-.05.01-.1.02-.14.04-1.01.55-1.91,1.27-2.76,2.03-.89.8-1.69,1.69-2.37,2.67-1.74,2.53-2.61,5.34-2.7,8.41-.01.36.09.44.44.43,10.13-.01,20.27,0,30.4,0,.07,0,.15,0,.22,0,.21.02.26-.09.28-.29.02-.27-.08-.53-.08-.8,0-.65-.13-1.28-.25-1.9-.24-1.16-.57-2.3-1.05-3.39-.67-1.56-1.6-2.94-2.74-4.18-.69-.76-1.49-1.4-2.31-2.01-.51-.38-1.02-.75-1.61-1.01Z"/><path d="m38.04,25.9c1.48-2.42,2.95-4.85,4.43-7.27.81-1.32,1.63-2.64,2.46-3.95.4-.64,1.33-.8,1.97-.38,1.51.99,3.02,1.97,4.49,3.02.36.26.76.45,1.08.78.27.27.38.57.38.94,0,2.29,0,4.57.01,6.86,0,1.75-.04,3.49,0,5.24.02.72-.28,1.18-.84,1.53-2.43,1.49-4.86,2.97-7.29,4.46-.88.54-1.75,1.09-2.62,1.64-.64.4-1.37.38-1.94-.2-1.47-1.5-3.13-2.76-5.02-3.7-.26-.13-.52-.25-.77-.37-.64-.32-.7-1.41-.41-1.88,1.29-2.12,2.59-4.23,3.89-6.34.07-.11.12-.23.18-.35Zm1.61-.01c-.05.08-.1.16-.14.24-1.41,2.33-2.82,4.67-4.25,7-.14.23-.07.29.11.36.89.34,1.7.82,2.49,1.35,1.16.77,2.23,1.67,3.19,2.68.12.12.2.19.38.07.69-.45,1.4-.87,2.1-1.31,2.46-1.54,4.92-3.09,7.43-4.57.24-.14.56-.26.56-.65,0-1.72,0-3.44-.01-5.16,0-2.24,0-4.47.01-6.71,0-.12-.02-.18-.14-.26-.67-.43-1.34-.88-2-1.33-.99-.67-1.98-1.34-2.97-2.01-.19-.13-.38-.25-.52.1-.12.28-.33.52-.49.79-1,1.64-1.99,3.29-3,4.93-.91,1.5-1.84,2.99-2.76,4.48Z"/><path class="cls-5" d="m21.24,25.89c-.3-1-.6-2-.89-3.01-.57-1.96-1.13-3.93-1.7-5.89-.36-1.24-.73-2.48-1.09-3.72,5.89,0,11.78,0,17.67,0-.29,1.14-.67,2.25-1.02,3.37-.68,2.18-1.37,4.35-2.03,6.53-.27.91-.54,1.82-.86,2.71-3.36,0-6.72,0-10.07,0Z"/><path class="cls-2" d="m35.22,13.28c-5.89,0-11.78,0-17.67,0-.45-1.5-.9-2.99-1.33-4.49-.05-.16-.04-.32.16-.46,1.1-.72,2.19-1.47,3.28-2.21,1.74-1.16,3.48-2.31,5.21-3.49.39-.27.79-.53,1.18-.81.27-.2.44-.23.74,0,1.08.78,2.2,1.49,3.3,2.24,2.12,1.45,4.23,2.91,6.35,4.36.18.12.25.27.18.48-.46,1.44-.92,2.88-1.38,4.32,0,.02-.02.04-.04.06Z"/><path class="cls-3" d="m21.24,25.89c3.36,0,6.72,0,10.07,0-.39,1.29-.78,2.58-1.17,3.86-.1.33-.19.66-.29.99-.06.19-.14.28-.37.2-.75-.26-1.54-.35-2.33-.43-1.27-.13-2.5.06-3.72.35-.67.16-.68.18-.87-.46-.45-1.51-.88-3.02-1.33-4.53Z"/><path class="cls-3" d="m13.05,25.89c.77,1.25,1.54,2.5,2.31,3.76.73,1.19,1.45,2.4,2.19,3.58.13.21.12.3-.1.39-1.24.5-2.36,1.22-3.42,2.03-.55.43-1.09.88-1.62,1.33-.24.2-.45.43-.66.66-.13.15-.26.15-.41.06-1.3-.8-2.61-1.61-3.91-2.41-1.95-1.21-3.9-2.42-5.86-3.62-.21-.13-.24-.27-.24-.48,0-1.42,0-2.85,0-4.27,0-.34-.14-.67-.07-1.01,3.93,0,7.86,0,11.79,0Z"/><path class="cls-5" d="m13.05,25.89c-3.93,0-7.86,0-11.79,0-.08-.34.07-.67.07-1.01,0-1.81-.12-3.62-.09-5.44,0-.23.08-.36.25-.46,1.69-1.01,3.3-2.15,4.93-3.25.26-.17.35-.16.51.11.87,1.45,1.76,2.89,2.64,4.34.93,1.53,1.87,3.05,2.8,4.58.23.38.45.76.68,1.14Z"/><path class="cls-4" d="m4.13,52.67c-.86.03-1.71-.13-2.56-.07-.33.02-.28-.23-.31-.41-.06-.4.07-.8.07-1.2,0-3.42,0-6.83,0-10.25q0-.43.41-.29c1.89.64,3.79,1.29,5.68,1.92.33.11.35.25.23.56-.61,1.59-1.28,3.16-1.64,4.83-.31,1.46-.73,2.9-.71,4.42,0,.51-.02.51-.51.51-.22,0-.44,0-.66,0Z"/><path class="cls-4" d="m51.52,46.48c0,1.92,0,3.83,0,5.75,0,.27-.04.39-.35.37-1.1-.06-2.2.11-3.3.08-.28,0-.34-.07-.34-.35,0-1.65-.32-3.25-.8-4.83-.47-1.56-1.03-3.09-1.62-4.61-.12-.3-.06-.44.26-.55,1.92-.63,3.84-1.27,5.76-1.91.38-.13.38-.12.38.3,0,1.92,0,3.83,0,5.75Z"/><path class="cls-4" d="m34.06,39.09c.59.25,1.1.63,1.61,1.01.82.61,1.62,1.25,2.31,2.01,1.14,1.25,2.06,2.63,2.74,4.18.47,1.1.81,2.23,1.05,3.39.13.62.26,1.26.25,1.9,0,.27.1.52.08.8-.02.2-.07.3-.28.29-.07,0-.15,0-.22,0-10.13,0-20.27,0-30.4,0-.35,0-.45-.07-.44-.43.08-3.07.96-5.88,2.7-8.41.68-.98,1.48-1.88,2.37-2.67.86-.76,1.75-1.48,2.76-2.03.04-.02.09-.03.14-.04,5.11,0,10.23,0,15.34,0Z"/><path class="cls-3" d="m34.06,39.09c-5.11,0-10.23,0-15.34,0,.44-.37.97-.57,1.48-.79,1-.45,2.06-.77,3.13-.99.64-.14,1.29-.19,1.93-.26.8-.1,1.6-.08,2.4,0,.99.09,1.97.27,2.93.55,1.05.31,2.06.69,3.02,1.22.15.08.3.19.45.29Z"/><path class="cls-3" d="m51.51,25.89c0,1.72,0,3.44.01,5.16,0,.39-.32.51-.56.65-2.5,1.48-4.96,3.03-7.43,4.57-.7.44-1.41.86-2.1,1.31-.18.12-.27.05-.38-.07-.97-1.01-2.03-1.9-3.19-2.68-.79-.52-1.6-1.01-2.49-1.35-.18-.07-.26-.13-.11-.36,1.43-2.32,2.84-4.66,4.25-7,.05-.08.1-.16.14-.24,3.95,0,7.91,0,11.86,0Z"/><path class="cls-5" d="m51.51,25.89c-3.95,0-7.91,0-11.86,0,.92-1.49,1.84-2.99,2.76-4.48,1-1.64,2-3.29,3-4.93.16-.27.37-.51.49-.79.15-.34.34-.22.52-.1.99.66,1.98,1.34,2.97,2.01.66.45,1.33.9,2,1.33.12.07.14.14.14.26,0,2.24,0,4.47-.01,6.71Z"/></g><line class="cls-1" x1="17.65" y1="39.07" x2="35.38" y2="39.11"/><line class="cls-1" x1=".96" y1="25.88" x2="13.81" y2="25.92"/><line class="cls-1" x1="20.46" y1="25.88" x2="32.57" y2="25.92"/><line class="cls-1" x1="16.99" y1="13.25" x2="35.97" y2="13.29"/><line class="cls-1" x1="38.92" y1="25.88" x2="51.56" y2="25.92"/></g></svg>